<svg class="logo" width="298" height="74" viewBox="0 0 298 74" fill="none" xmlns="http://www.w3.org/2000/svg">
            <ellipse cx="40.6025" cy="36.63" rx="25.7025" ry="25.53" fill="#08BC1A" />
            <path
                d="M94.1222 32.179H98.9545C98.1491 27.0398 93.7003 23.4602 87.9091 23.4602C81.0568 23.4602 75.9176 28.4972 75.9176 36.9347C75.9176 45.2188 80.8267 50.358 88.0497 50.358C94.5312 50.358 99.1719 46.1903 99.1719 39.4403V36.2955H88.5483V40.0028H94.5824C94.5057 43.7358 92.0128 46.1009 88.0753 46.1009C83.6903 46.1009 80.6861 42.8153 80.6861 36.8835C80.6861 30.9901 83.7415 27.7173 87.973 27.7173C91.1307 27.7173 93.2784 29.4048 94.1222 32.179ZM103.554 50H108.181V38.456C108.181 35.9631 110.061 34.1989 112.605 34.1989C113.385 34.1989 114.356 34.3395 114.752 34.4673V30.2102C114.331 30.1335 113.602 30.0824 113.091 30.0824C110.841 30.0824 108.961 31.3608 108.245 33.6364H108.041V30.3636H103.554V50ZM123.091 50.3963C126.172 50.3963 128.013 48.9517 128.857 47.3026H129.01V50H133.459V36.858C133.459 31.6676 129.227 30.108 125.482 30.108C121.352 30.108 118.182 31.9489 117.159 35.5284L121.48 36.142C121.94 34.7997 123.244 33.6491 125.507 33.6491C127.655 33.6491 128.831 34.7486 128.831 36.679V36.7557C128.831 38.0852 127.438 38.1491 123.973 38.5199C120.163 38.929 116.52 40.0668 116.52 44.4901C116.52 48.3509 119.345 50.3963 123.091 50.3963ZM124.293 46.9957C122.362 46.9957 120.982 46.1136 120.982 44.4134C120.982 42.6364 122.528 41.8949 124.599 41.6009C125.814 41.4347 128.243 41.1278 128.844 40.642V42.956C128.844 45.142 127.08 46.9957 124.293 46.9957ZM142.74 38.4943C142.74 35.6562 144.453 34.0199 146.895 34.0199C149.286 34.0199 150.717 35.5923 150.717 38.2131V50H155.345V37.4972C155.358 32.7926 152.673 30.108 148.621 30.108C145.68 30.108 143.661 31.5142 142.766 33.7003H142.536V30.3636H138.112V50H142.74V38.4943ZM160.254 50H164.805V46.9062H165.074C165.803 48.3381 167.324 50.3452 170.699 50.3452C175.327 50.3452 178.791 46.6761 178.791 40.2074C178.791 33.6619 175.224 30.108 170.686 30.108C167.222 30.108 165.777 32.1918 165.074 33.6108H164.882V23.8182H160.254V50ZM164.793 40.1818C164.793 36.3722 166.429 33.9048 169.408 33.9048C172.489 33.9048 174.074 36.5256 174.074 40.1818C174.074 43.8636 172.463 46.5483 169.408 46.5483C166.455 46.5483 164.793 43.9915 164.793 40.1818ZM191.291 50.3835C197.044 50.3835 200.7 46.331 200.7 40.2585C200.7 34.1733 197.044 30.108 191.291 30.108C185.538 30.108 181.882 34.1733 181.882 40.2585C181.882 46.331 185.538 50.3835 191.291 50.3835ZM191.316 46.6761C188.133 46.6761 186.574 43.8381 186.574 40.2457C186.574 36.6534 188.133 33.777 191.316 33.777C194.449 33.777 196.008 36.6534 196.008 40.2457C196.008 43.8381 194.449 46.6761 191.316 46.6761ZM204.628 50H209.256V38.456C209.256 35.9631 211.135 34.1989 213.679 34.1989C214.459 34.1989 215.43 34.3395 215.827 34.4673V30.2102C215.405 30.1335 214.676 30.0824 214.165 30.0824C211.915 30.0824 210.036 31.3608 209.32 33.6364H209.115V30.3636H204.628V50ZM218.901 50H223.529V38.456C223.529 35.9631 225.408 34.1989 227.952 34.1989C228.732 34.1989 229.704 34.3395 230.1 34.4673V30.2102C229.678 30.1335 228.95 30.0824 228.438 30.0824C226.188 30.0824 224.309 31.3608 223.593 33.6364H223.388V30.3636H218.901V50ZM241.059 50.3835C245.636 50.3835 248.781 48.1463 249.599 44.733L245.278 44.2472C244.652 45.9091 243.118 46.7784 241.123 46.7784C238.132 46.7784 236.15 44.8097 236.112 41.4474H249.791V40.0284C249.791 33.1378 245.649 30.108 240.816 30.108C235.191 30.108 231.522 34.2372 231.522 40.2969C231.522 46.4588 235.14 50.3835 241.059 50.3835ZM236.125 38.3281C236.265 35.8224 238.119 33.7131 240.88 33.7131C243.539 33.7131 245.329 35.6562 245.355 38.3281H236.125Z"
                fill="white" />
            <path d="M41 53V31L38 28" stroke="white" stroke-width="3" stroke-linejoin="round" />
            <path d="M41 37L47 33" stroke="white" stroke-width="3" stroke-linejoin="round" />
            <path d="M41 40L36 35" stroke="white" stroke-width="3" stroke-linejoin="round" />
            <path d="M41 31L45 28" stroke="white" stroke-width="3" stroke-linejoin="round" />
            <path
                d="M41 44C47.0751 44 52 39.0751 52 33C52 26.9249 47.0751 22 41 22C34.9249 22 30 26.9249 30 33C30 39.0751 34.9249 44 41 44Z"
                stroke="white" stroke-width="3" stroke-linejoin="round" />
        </svg>