<?xml version="1.0" standalone="no"?>
<!DOCTYPE svg PUBLIC "-//W3C//DTD SVG 20010904//EN"
 "http://www.w3.org/TR/2001/REC-SVG-20010904/DTD/svg10.dtd">
<svg version="1.0" xmlns="http://www.w3.org/2000/svg"
 width="848.000000pt" height="848.000000pt" viewBox="0 0 848.000000 848.000000"
 preserveAspectRatio="xMidYMid meet">
<metadata>
Created by potrace 1.11, written by Peter Selinger 2001-2013
</metadata>
<g transform="translate(0.000000,848.000000) scale(0.100000,-0.100000)"
fill="#000000" stroke="none">
<path d="M4127 8383 c-1 0 -51 -4 -112 -7 -60 -4 -123 -8 -140 -10 -16 -2 -64
-7 -105 -11 -93 -10 -115 -13 -115 -15 0 -2 -11 -4 -25 -5 -30 -2 -99 -14
-120 -20 -8 -2 -33 -6 -55 -10 -51 -7 -366 -84 -380 -93 -5 -4 -17 -8 -25 -9
-8 -1 -62 -19 -120 -38 -58 -20 -111 -37 -117 -37 -7 -1 -13 -5 -13 -10 0 -4
-3 -7 -7 -6 -5 0 -17 -2 -28 -7 -139 -56 -209 -86 -312 -136 -67 -32 -126 -59
-132 -59 -6 0 -11 -4 -11 -8 0 -5 -12 -14 -27 -21 -16 -7 -74 -40 -131 -74
-57 -34 -118 -70 -135 -81 -18 -10 -33 -22 -35 -27 -2 -5 -8 -9 -13 -9 -9 0
-99 -60 -126 -84 -31 -27 -43 -36 -48 -36 -10 0 -185 -143 -292 -238 -121
-107 -223 -211 -223 -225 0 -6 -3 -8 -6 -4 -3 3 -25 -15 -48 -41 -22 -26 -53
-60 -68 -77 -57 -64 -80 -92 -121 -145 -23 -30 -52 -66 -64 -80 -13 -14 -23
-28 -23 -32 0 -3 -6 -13 -13 -20 -7 -7 -24 -29 -37 -48 -13 -19 -28 -39 -32
-45 -23 -30 -78 -118 -78 -126 0 -5 -3 -9 -8 -9 -4 0 -12 -9 -17 -19 -6 -11
-37 -66 -70 -123 -34 -57 -71 -123 -83 -148 -13 -25 -27 -52 -33 -60 -10 -17
-73 -154 -114 -250 -15 -36 -34 -80 -42 -98 -8 -18 -16 -40 -18 -50 -3 -9 -24
-73 -48 -142 -24 -69 -48 -143 -54 -165 -6 -22 -23 -85 -37 -139 -14 -55 -24
-101 -21 -104 2 -2 0 -12 -4 -21 -5 -9 -11 -29 -14 -46 -3 -16 -15 -82 -26
-145 -18 -105 -23 -140 -36 -265 -18 -167 -24 -492 -11 -675 11 -167 16 -210
42 -375 5 -25 32 -179 38 -210 1 -5 5 -16 9 -22 5 -7 6 -13 4 -13 -3 0 -1 -17
4 -37 5 -21 12 -49 15 -63 3 -14 9 -38 14 -55 16 -48 41 -144 40 -150 0 -3 7
-19 15 -35 9 -17 13 -30 9 -30 -4 0 -1 -7 6 -15 7 -8 9 -15 4 -15 -4 0 -3 -5
4 -12 7 -7 12 -18 12 -26 0 -7 19 -62 42 -120 23 -59 43 -109 43 -112 5 -19
104 -234 127 -274 6 -11 27 -51 47 -90 41 -79 64 -119 71 -126 3 -3 12 -18 20
-35 8 -16 21 -37 28 -45 7 -8 12 -19 11 -24 0 -5 3 -12 8 -15 5 -3 31 -40 58
-81 26 -41 53 -78 59 -82 7 -5 7 -8 1 -8 -6 0 -6 -3 1 -8 5 -4 37 -43 70 -87
71 -96 68 -92 183 -227 98 -114 241 -260 362 -370 88 -79 245 -208 254 -208 3
0 16 -11 29 -25 13 -14 28 -25 34 -25 6 0 17 -6 24 -13 45 -45 297 -204 456
-288 18 -10 39 -23 47 -29 8 -6 20 -13 27 -14 7 -2 62 -27 123 -55 135 -65
467 -198 500 -201 3 0 6 0 8 -1 1 0 9 -2 17 -4 8 -2 36 -10 61 -19 25 -8 54
-17 65 -19 10 -2 26 -7 34 -10 17 -6 94 -26 125 -32 11 -2 34 -6 50 -9 17 -4
41 -9 55 -13 14 -3 32 -7 40 -9 8 -2 31 -6 50 -10 19 -3 49 -8 65 -11 17 -2
41 -6 55 -9 14 -3 43 -7 65 -9 22 -3 58 -7 80 -10 22 -4 60 -8 85 -10 25 -2
88 -7 140 -11 168 -13 489 -8 670 11 19 2 58 6 87 9 28 3 82 10 120 17 37 6
79 13 93 15 77 10 353 72 390 87 8 3 35 11 60 17 69 18 303 97 362 123 29 13
55 24 58 24 22 -1 506 239 530 263 3 3 15 11 28 18 12 6 32 18 45 25 12 6 24
14 27 17 3 3 30 21 60 40 30 19 60 38 65 42 132 96 297 222 318 242 15 14 30
26 32 26 14 0 357 339 430 425 28 32 66 79 85 104 19 24 45 55 57 68 12 13 39
50 60 81 21 31 43 62 49 67 13 12 133 195 160 245 10 19 25 41 32 48 6 7 12
20 12 28 0 8 5 14 10 14 6 0 10 6 10 14 0 8 6 21 13 28 24 25 202 399 232 488
1 3 7 19 14 35 37 89 133 395 147 465 3 14 10 43 15 64 6 22 12 49 14 60 1 12
5 28 8 36 3 8 8 31 11 50 3 19 7 46 10 60 3 13 8 40 11 60 3 20 7 45 9 55 2
11 7 49 11 85 3 36 8 77 11 92 24 151 23 689 -1 868 -2 19 -7 55 -10 80 -10
85 -22 154 -37 230 -15 74 -17 81 -22 110 -2 14 -14 63 -26 110 -12 47 -23 90
-24 95 -2 6 -9 30 -16 55 -7 25 -14 50 -16 57 -4 20 -25 87 -34 108 -11 24
-30 86 -31 100 0 6 -4 15 -9 20 -5 6 -18 37 -30 70 -12 33 -30 78 -39 100 -10
22 -31 69 -47 105 -55 124 -173 346 -241 452 -78 124 -98 154 -110 166 -7 7
-13 17 -13 22 0 5 -6 15 -13 22 -7 7 -24 29 -37 48 -13 19 -30 41 -37 48 -7 7
-13 16 -13 20 0 4 -13 21 -28 38 -15 17 -38 46 -52 64 -90 118 -351 390 -481
500 -91 77 -131 111 -161 135 -65 53 -202 151 -288 206 -58 38 -110 73 -117
79 -7 5 -14 10 -16 10 -2 0 -42 22 -88 48 -121 69 -365 192 -371 186 -3 -2
-11 2 -18 11 -7 8 -23 15 -36 15 -13 0 -24 4 -24 9 0 5 -10 11 -22 14 -34 8
-122 41 -128 48 -3 3 -17 9 -32 13 -15 3 -40 11 -55 18 -15 6 -32 12 -38 13
-5 2 -32 10 -60 20 -27 9 -61 19 -75 22 -13 2 -30 9 -37 15 -7 6 -13 8 -13 5
0 -3 -15 -1 -32 5 -55 17 -206 53 -283 68 -70 13 -96 18 -130 25 -16 4 -43 8
-60 10 -16 2 -68 8 -115 14 -122 16 -163 20 -270 27 -87 5 -379 11 -383 7z"/>
</g>
</svg>
